Coordinates
version=1
nRows=8
nColumns=34
inDegrees=yes

Units are S.I. units (second, meters, Newtons, ...)
If the header above contains a line with 'inDegrees', this indicates whether rotational values are in degrees (yes) or radians (no).

endheader
time	pelvis_tilt	pelvis_list	pelvis_rotation	pelvis_tx	pelvis_ty	pelvis_tz	hip_flexion_r	hip_adduction_r	hip_rotation_r	knee_angle_r	ankle_angle_r	subtalar_angle_r	mtp_angle_r	hip_flexion_l	hip_adduction_l	hip_rotation_l	knee_angle_l	ankle_angle_l	subtalar_angle_l	mtp_angle_l	lumbar_extension	lumbar_bending	lumbar_rotation	arm_flex_r	arm_add_r	arm_rot_r	elbow_flex_r	pro_sup_r	arm_flex_l	arm_add_l	arm_rot_l	elbow_flex_l	pro_sup_l
      0.00000000	      8.21793997	     -3.77529368	    -15.01265637	     -6.23168025	      1.00406125	     -0.97588036	    -12.70641988	      6.23913484	     -3.39453875	      8.59052893	     15.21468053	     -4.25600714	      0.00000000	     12.24603496	     -3.47753673	      2.55093167	     26.06179426	      1.51993911	    -12.67090117	      0.00000000	    -21.17483545	      5.97977694	      4.67542370	      6.11610987	     -9.72277490	     10.02512213	     23.26091865	     69.16197041	     -2.17082376	     -5.33396131	      4.24008400	    102.43516433	    108.14034290
      0.01666670	     13.61887103	     -4.61351834	    -14.48988797	     -6.23784353	      1.01337834	     -0.97983951	    -18.67730337	      5.70112226	     -1.52879135	      7.29625506	     16.57419992	     -4.26621953	      0.00000000	      6.81993293	     -1.99595890	      3.98983527	     26.95284898	      1.11462762	    -14.42164262	      0.00000000	    -28.62900904	      5.38574284	      4.58264139	      7.94995243	     -9.34367760	      8.42167770	     23.64555930	     70.91669827	      0.00994110	     -5.15678018	      4.64294591	    106.56258931	    107.39759536
      0.03333330	     14.35524665	     -4.16737560	    -14.33228995	     -6.24031463	      1.01393808	     -0.98167206	    -19.54497245	      5.05450240	     -2.58987780	      6.52363055	     16.37089905	     -4.43005934	      0.00000000	      5.91175442	     -0.76146479	      5.03700623	     26.27112788	      0.90319708	    -15.56232073	      0.00000000	    -30.46400065	      4.33895574	      5.67609889	      6.73434046	     -7.89051015	     -7.72622731	     26.51458749	    102.36016190	      1.39147794	     -5.03856761	      5.76109141	    108.38192794	     98.34792631
      0.05000000	     15.83680748	     -4.49598102	    -14.03432776	     -6.24289982	      1.01888740	     -0.98355687	    -21.20481960	      4.90513853	     -2.95721437	      6.04528367	     15.69130855	     -3.72420823	      0.00000000	      3.81562608	     -0.41579419	      5.84779933	     25.15621030	      0.78574497	    -15.47519978	      0.00000000	    -32.88750144	      4.02638755	      5.40334532	      7.75507897	     -7.52074210	     -8.66273246	     26.01437448	    102.63378240	      1.97624619	     -4.90701330	      5.84604192	    109.89302057	     98.58929086
      0.06666670	     16.77513489	     -4.74256123	    -13.75293086	     -6.24355583	      1.02370509	     -0.98453618	    -22.24518304	      4.90165969	     -3.24915298	      5.70196240	     14.85988572	     -3.21048791	      0.00000000	      2.18885827	     -0.32580806	      6.24507370	     23.94798452	      0.23608665	    -15.38482215	      0.00000000	    -34.75666527	      3.76779570	      5.20023341	      8.42842267	     -6.99716049	     -9.75654694	     26.16687578	    102.97963011	      2.59423131	     -5.15516652	      6.29360997	    111.29354246	     98.98100221
      0.08333330	     17.60951011	     -4.90980778	    -13.52365234	     -6.24197111	      1.02571793	     -0.98508749	    -23.20849016	      4.81719465	     -3.66057195	      5.51451494	     13.87824524	     -2.92417298	      0.00000000	      0.65614362	     -0.29543166	      6.14394500	     22.85245714	     -0.09773976	    -15.00387356	      0.00000000	    -36.16360441	      3.47807193	      5.07579193	      8.95398156	     -6.53779166	    -10.52332863	     26.22001081	    103.26728006	      3.17131047	     -5.55787712	      6.75950403	    112.23751203	     99.36141049
      0.10000000	     18.58337492	     -5.03799718	    -13.33030608	     -6.23964767	      1.02459309	     -0.98611589	    -24.17953299	      4.62936043	     -3.93978759	      5.63043037	     13.38931283	     -3.00571620	      0.00000000	     -0.94113946	     -0.20200651	      6.01350201	     21.97323714	      0.04877406	    -14.79154953	      0.00000000	    -37.78877534	      3.13979731	      4.94818979	      9.50543722	     -6.06555718	    -11.27804947	     26.28891449	    103.58556261	      3.59834579	     -6.15652277	      7.39692936	    113.39353761	     99.81951581
      0.11666670	     19.51049383	     -5.14018038	    -13.07405930	     -6.23749288	      1.02468566	     -0.98779919	    -25.07930040	      4.43925380	     -4.26358129	      5.80015070	     12.79078200	     -3.27471007	      0.00000000	     -2.46946988	     -0.04379555	      5.93239430	     21.12428042	      0.09930813	    -14.53909624	      0.00000000	    -39.10701763	      2.89571138	      4.71401883	      9.88842470	     -5.67757952	    -12.02229198	     26.43054707	    103.95923895	      3.77202526	     -6.67912531	      7.96623285	    114.44210964	    100.34063540
